<?xml version="1.0" standalone="no"?>
<!DOCTYPE svg PUBLIC "-//W3C//DTD SVG 1.1//EN" "http://www.w3.org/Graphics/SVG/1.1/DTD/svg11.dtd" >
<svg xmlns="http://www.w3.org/2000/svg" xmlns:xlink="http://www.w3.org/1999/xlink" version="1.1" viewBox="-10 0 650 1024">
   <path fill="currentColor"
d="M0 128h245q122 -1 197.5 42t77.5 147q0 56 -28 102t-79 65v4q65 14 105.5 59.5t41.5 123.5q-3 114 -84.5 169.5t-210.5 55.5h-265v-768zM234 445q80 -1 116.5 -29.5t35.5 -78.5q0 -56 -37.5 -80t-112.5 -23h-100v211h98zM251 790q85 0 130.5 -31.5t45.5 -95.5
q0 -60 -45 -88t-131 -28h-115v243h115z" />
</svg>
