<?xml version="1.0" standalone="no"?>
<!DOCTYPE svg PUBLIC "-//W3C//DTD SVG 1.1//EN" "http://www.w3.org/Graphics/SVG/1.1/DTD/svg11.dtd" >
<svg xmlns="http://www.w3.org/2000/svg" xmlns:xlink="http://www.w3.org/1999/xlink" version="1.1" viewBox="-10 0 1034 1024">
   <path fill="currentColor"
d="M576 576h-64q27 -1 45 -19t19 -45v-64q-1 -27 -19 -45t-45 -19h-64q-27 1 -45 19t-19 45v64q1 27 19 45t45 19h-64q-27 1 -45 19t-19 45v128h64v192q1 27 19 45t45 19h64q27 -1 45 -19t19 -45v-192h64v-128q-1 -27 -19 -45t-45 -19zM448 448h64v64h-64v-64zM576 704h-64
v256h-64v-256h-64v-64h192v64zM710 480q-2 -98 -67 -163t-163 -67q-98 2 -163 67t-67 163q0 27 6 52v127q-30 -37 -47 -82.5t-17 -96.5q3 -122 84.5 -203.5t203.5 -84.5q122 3 203.5 84.5t84.5 203.5q0 51 -17 96.5t-47 82.5v-127q6 -25 6 -52zM960 480q-2 140 -71 251
t-185 173v-67q90 -57 143.5 -150t54.5 -207q-5 -179 -124 -298t-298 -124q-179 5 -298 124t-124 298q1 114 54.5 207t143.5 150v67q-116 -62 -185 -173t-71 -251q5 -204 140.5 -339.5t339.5 -140.5q204 5 339.5 140.5t140.5 339.5z" />
</svg>
