<?xml version="1.0" standalone="no"?>
<!DOCTYPE svg PUBLIC "-//W3C//DTD SVG 1.1//EN" "http://www.w3.org/Graphics/SVG/1.1/DTD/svg11.dtd" >
<svg xmlns="http://www.w3.org/2000/svg" xmlns:xlink="http://www.w3.org/1999/xlink" version="1.1" viewBox="-10 0 916 1024">
   <path fill="currentColor"
d="M320 192h64v64h-64v-64zM192 192h64v64h-64v-64zM64 192h64v64h-64v-64zM832 832h-768v-512h768v512zM832 256h-384v-64h384v64zM896 192q-1 -27 -19 -45t-45 -19h-768q-27 1 -45 19t-19 45v640q1 27 19 45t45 19h768q27 -1 45 -19t19 -45v-640z" />
</svg>
