<?xml version="1.0" standalone="no"?>
<!DOCTYPE svg PUBLIC "-//W3C//DTD SVG 1.1//EN" "http://www.w3.org/Graphics/SVG/1.1/DTD/svg11.dtd" >
<svg xmlns="http://www.w3.org/2000/svg" xmlns:xlink="http://www.w3.org/1999/xlink" version="1.1" viewBox="-10 0 906 1024">
   <path fill="currentColor"
d="M768 128h-64v96q0 14 -9 23t-23 9h-128q-14 0 -23 -9t-9 -23v-96h-192v96q0 14 -9 23t-23 9h-128q-14 0 -23 -9t-9 -23v-96h-64q-27 1 -45 19t-19 45v704q1 27 19 45t45 19h704q27 -1 45 -19t19 -45v-704q-1 -27 -19 -45t-45 -19zM768 896h-704v-576h704v576zM256 192
h-64v-128h64v128zM640 192h-64v-128h64v128zM320 448h-64v-64h64v64zM448 448h-64v-64h64v64zM576 448h-64v-64h64v64zM704 448h-64v-64h64v64zM192 576h-64v-64h64v64zM320 576h-64v-64h64v64zM448 576h-64v-64h64v64zM576 576h-64v-64h64v64zM704 576h-64v-64h64v64z
M192 704h-64v-64h64v64zM320 704h-64v-64h64v64zM448 704h-64v-64h64v64zM576 704h-64v-64h64v64zM704 704h-64v-64h64v64zM192 832h-64v-64h64v64zM320 832h-64v-64h64v64zM448 832h-64v-64h64v64zM576 832h-64v-64h64v64z" />
</svg>
