<?xml version="1.0" standalone="no"?>
<!DOCTYPE svg PUBLIC "-//W3C//DTD SVG 1.1//EN" "http://www.w3.org/Graphics/SVG/1.1/DTD/svg11.dtd" >
<svg xmlns="http://www.w3.org/2000/svg" xmlns:xlink="http://www.w3.org/1999/xlink" version="1.1" viewBox="-10 0 1044 1024">
   <path fill="currentColor"
d="M1024 544l-384 384l-192 -192l96 -96l96 96l288 -288zM365 781l51 51h-288q-27 -1 -45 -19t-19 -45v-576q1 -27 19 -45t45 -19h448q27 1 45 19t19 45v416l-51 -51q-20 -19 -45.5 -19t-45.5 19l-133 134q-19 20 -19 45t19 45zM256 256h320v-64h-320v64zM256 384h320v-64
h-320v64zM256 512h192v-64h-192v64zM192 576h-64v64h64v-64zM192 448h-64v64h64v-64zM192 320h-64v64h64v-64zM192 192h-64v64h64v-64z" />
</svg>
