<?xml version="1.0" standalone="no"?>
<!DOCTYPE svg PUBLIC "-//W3C//DTD SVG 1.1//EN" "http://www.w3.org/Graphics/SVG/1.1/DTD/svg11.dtd" >
<svg xmlns="http://www.w3.org/2000/svg" xmlns:xlink="http://www.w3.org/1999/xlink" version="1.1" viewBox="-10 0 916 1024">
   <path fill="currentColor"
d="M192 320q1 -27 19 -45t45 -18t45 18t18 45t-18 45t-45 18t-45 -18t-19 -45zM704 320q-1 -27 -19 -45t-45 -18t-45 18t-18 45t18 45t45 18t45 -18t19 -45zM704 704q-1 -27 -19 -45t-45 -18t-45 18t-18 45t18 45t45 18t45 -18t19 -45zM832 64h-512v139q35 18 53 53h150
q21 -38 61 -57.5t89 -9.5q37 10 63 36t35 63q13 68 -26 116t-105 50q-39 0 -69.5 -19t-47.5 -51h-150q-21 39 -60.5 58t-89.5 8q-36 -9 -62 -35t-35 -62q-11 -50 8 -89.5t58 -60.5v-139h-128q-27 1 -45 19t-19 45v768q1 27 19 45t45 19l320 -320h139q21 -38 61 -57.5
t89 -9.5q37 10 63 36t35 63q13 68 -26 116t-105 50q-39 0 -69.5 -19t-47.5 -51h-75l-192 192h576q27 -1 45 -19t19 -45v-768q-1 -27 -19 -45t-45 -19z" />
</svg>
