<?xml version="1.0" standalone="no"?>
<!DOCTYPE svg PUBLIC "-//W3C//DTD SVG 1.1//EN" "http://www.w3.org/Graphics/SVG/1.1/DTD/svg11.dtd" >
<svg xmlns="http://www.w3.org/2000/svg" xmlns:xlink="http://www.w3.org/1999/xlink" version="1.1" viewBox="-10 0 1044 1024">
   <path fill="currentColor"
d="M960 128h-576q-27 1 -45 19t-19 45v128h-256q-27 1 -45 19t-19 45v384q1 27 19 45t45 19h64v192l192 -192h256q27 -1 45 -19t19 -45v-128h64l192 192v-192h64q27 -1 45 -19t19 -45v-384q-1 -27 -19 -45t-45 -19zM576 768h-288l-96 96v-96h-128v-384h256v192q1 27 19 45
t45 19h192v128zM960 576h-128v96l-96 -96h-352v-384h576v384z" />
</svg>
