<?xml version="1.0" standalone="no"?>
<!DOCTYPE svg PUBLIC "-//W3C//DTD SVG 1.1//EN" "http://www.w3.org/Graphics/SVG/1.1/DTD/svg11.dtd" >
<svg xmlns="http://www.w3.org/2000/svg" xmlns:xlink="http://www.w3.org/1999/xlink" version="1.1" viewBox="-10 0 906 1024">
   <path fill="currentColor"
d="M384 448h128v64h-128v128h-64v-128h-128v-64h128v-128h64v128zM192 832h320v-64h-320v64zM480 128l224 224v608q-1 27 -19 45t-45 19h-576q-27 -1 -45 -19t-19 -45v-768q1 -27 19 -45t45 -19h416zM640 384l-192 -192h-384v768h576v-576zM544 0h-176h-176v64h320l256 256
v512h64v-544z" />
</svg>
