<?xml version="1.0" standalone="no"?>
<!DOCTYPE svg PUBLIC "-//W3C//DTD SVG 1.1//EN" "http://www.w3.org/Graphics/SVG/1.1/DTD/svg11.dtd" >
<svg xmlns="http://www.w3.org/2000/svg" xmlns:xlink="http://www.w3.org/1999/xlink" version="1.1" viewBox="-10 0 788 1024">
   <path fill="currentColor"
d="M544 64h-480q-27 1 -45 19t-19 45v768q1 27 19 45t45 19h640q27 -1 45 -19t19 -45v-608zM64 128h256q-10 3 -19.5 12.5t-15.5 30.5q-10 38 -5.5 93.5t21.5 115.5q-23 70 -71 170t-58 118q-13 4 -44 18.5t-64 41.5v-600zM347 435q44 108 75.5 134t59.5 34q-61 9 -115.5 21
t-116.5 38q2 -2 39.5 -80t57.5 -147zM704 896h-608q-6 0 -11 -2q20 -6 47 -28q44 -36 114 -152q30 -12 52 -20l27 -9q44 -12 92 -20.5t95 -13.5q43 21 89.5 33.5t78.5 15.5q14 0 24 -2v198zM704 585q-18 -11 -40.5 -17.5t-48.5 -7.5q-37 0 -79 5q-22 -6 -62.5 -41
t-84.5 -149q12 -80 13.5 -126.5t-0.5 -47.5q4 -39 -12.5 -56t-39.5 -17h162l192 192v265z" />
</svg>
