<?xml version="1.0" standalone="no"?>
<!DOCTYPE svg PUBLIC "-//W3C//DTD SVG 1.1//EN" "http://www.w3.org/Graphics/SVG/1.1/DTD/svg11.dtd" >
<svg xmlns="http://www.w3.org/2000/svg" xmlns:xlink="http://www.w3.org/1999/xlink" version="1.1" viewBox="-10 0 788 1024">
   <path fill="currentColor"
d="M256 768h64v64h-192v-64h64v-128h-64v-64h128v192zM768 288v608q-1 27 -19 45t-45 19h-640q-27 -1 -45 -19t-19 -45v-768q1 -27 19 -45t45 -19h480zM704 320l-192 -192h-448v768h640v-576zM512 256h-128v64h64v128h-64v64h192v-64h-64v-192zM128 256h192v256h-192v-256z
M192 448h64v-128h-64v128zM384 576h192v256h-192v-256zM448 768h64v-128h-64v128z" />
</svg>
