<?xml version="1.0" standalone="no"?>
<!DOCTYPE svg PUBLIC "-//W3C//DTD SVG 1.1//EN" "http://www.w3.org/Graphics/SVG/1.1/DTD/svg11.dtd" >
<svg xmlns="http://www.w3.org/2000/svg" xmlns:xlink="http://www.w3.org/1999/xlink" version="1.1" viewBox="-10 0 789 1024">
   <path fill="currentColor"
d="M323 20q38 103 25.5 167.5t-58.5 108.5q-49 48 -113.5 96t-118.5 119q-78 110 -47.5 267.5t273.5 225.5q-108 -62 -119.5 -189t100.5 -234q-26 100 14 151.5t110 31.5q68 -20 107 15t38 92q0 38 -16.5 68t-55.5 48q163 -34 235 -140.5t71 -215.5q-13 -128 -71 -190.5
t-9 -168.5q-72 6 -100 51.5t-21 124.5q2 53 -37 79.5t-82 5.5q-32 -21 -32.5 -52.5t28.5 -61.5q67 -64 57 -177.5t-177 -220.5z" />
</svg>
