<?xml version="1.0" standalone="no"?>
<!DOCTYPE svg PUBLIC "-//W3C//DTD SVG 1.1//EN" "http://www.w3.org/Graphics/SVG/1.1/DTD/svg11.dtd" >
<svg xmlns="http://www.w3.org/2000/svg" xmlns:xlink="http://www.w3.org/1999/xlink" version="1.1" viewBox="-10 0 916 1024">
   <path fill="currentColor"
d="M832 256h-88q9 -16 15 -31.5t8 -26.5q6 -65 -33 -103q-17 -18 -39 -24.5t-48 -6.5h-7q-26 1 -51.5 11t-46.5 26q-40 31 -62 77q-22 -46 -62 -77q-21 -16 -46.5 -26.5t-51.5 -10.5h-2q-27 0 -50.5 6.5t-41.5 24.5q-39 38 -33 103q2 11 8 26.5t15 31.5h-88q-27 1 -45 19
t-19 45v192h64v320q1 27 19 45t45 19h576q27 -1 45 -19t19 -45v-320h64v-192q-1 -27 -19 -45t-45 -19zM526 200q17 -35 48 -59q15 -11 33 -18t34 -8h6q21 0 33 4.5t18.5 11t13 20.5t5.5 41q-2 10 -11 27.5t-21 36.5h-185zM262 131q5 -6 17.5 -11t40.5 -5q15 0 33 7.5
t33 18.5q32 23 48 59l27 56h-186q-12 -19 -21 -36.5t-11 -27.5q-1 -27 5.5 -41t13.5 -20zM448 832h-256v-320h256v320zM448 448h-320v-128h320v128zM768 832h-256v-320h256v320zM832 448h-320v-128h320v128z" />
</svg>
