<?xml version="1.0" standalone="no"?>
<!DOCTYPE svg PUBLIC "-//W3C//DTD SVG 1.1//EN" "http://www.w3.org/Graphics/SVG/1.1/DTD/svg11.dtd" >
<svg xmlns="http://www.w3.org/2000/svg" xmlns:xlink="http://www.w3.org/1999/xlink" version="1.1" viewBox="-10 0 788 1024">
   <path fill="currentColor"
d="M480 320l160 160l-160 160l-48 -48l112 -112l-112 -112zM288 320l-160 160l160 160l48 -48l-112 -112l112 -112zM0 832v-704q1 -27 19 -45t45 -19h640q27 1 45 19t19 45v704q-1 27 -19 45t-45 19h-640q-27 -1 -45 -19t-19 -45zM64 832h640v-704h-640v704z" />
</svg>
