<?xml version="1.0" standalone="no"?>
<!DOCTYPE svg PUBLIC "-//W3C//DTD SVG 1.1//EN" "http://www.w3.org/Graphics/SVG/1.1/DTD/svg11.dtd" >
<svg xmlns="http://www.w3.org/2000/svg" xmlns:xlink="http://www.w3.org/1999/xlink" version="1.1" viewBox="-10 0 906 1024">
   <path fill="currentColor"
d="M512 672l64 224h-256l64 -224l-48 -96h224zM640 384h-384l-128 64h640zM576 128l-128 64l-128 -64l-64 192h384zM834 624l-194 -48l64 128l-128 192h206q22 0 39 -13.5t23 -34.5l36 -146q6 -26 -7 -48t-39 -30zM256 576l-194 48q-26 8 -39 30t-7 48l36 146q6 21 23 34.5
t39 13.5h206l-128 -192z" />
</svg>
