<?xml version="1.0" standalone="no"?>
<!DOCTYPE svg PUBLIC "-//W3C//DTD SVG 1.1//EN" "http://www.w3.org/Graphics/SVG/1.1/DTD/svg11.dtd" >
<svg xmlns="http://www.w3.org/2000/svg" xmlns:xlink="http://www.w3.org/1999/xlink" version="1.1" viewBox="-10 0 788 1024">
   <path fill="currentColor"
d="M640 448q-36 0 -64.5 17.5t-46.5 47.5v-1q-51 -1 -104.5 -17t-95.5 -48q-37 -29 -69.5 -72t-51.5 -84q22 -18 35 -43.5t13 -55.5q-1 -55 -37 -91t-91 -37q-55 1 -91 37t-37 91q0 36 17.5 64.5t46.5 45.5v420q-29 17 -46.5 45.5t-17.5 64.5q1 55 37 91t91 37q55 -1 91 -37
t37 -91q0 -36 -17.5 -64.5t-46.5 -45.5v-231q65 67 147 108q42 20 93 30t97 11v-1q18 30 46.5 47.5t64.5 17.5q55 -1 91 -37t37 -91q-1 -55 -37 -91t-91 -37zM205 832q-1 32 -23 54t-54 22t-54 -22t-22 -54t22 -54t54 -22t54 22t23 54zM128 269q-32 -1 -54 -23t-22 -54
t22 -54t54 -22t54 22t22 54t-22 54t-54 23zM640 653q-32 -1 -54 -23t-22 -54t22 -54t54 -22t54 22t22 54t-22 54t-54 23z" />
</svg>
