<?xml version="1.0" standalone="no"?>
<!DOCTYPE svg PUBLIC "-//W3C//DTD SVG 1.1//EN" "http://www.w3.org/Graphics/SVG/1.1/DTD/svg11.dtd" >
<svg xmlns="http://www.w3.org/2000/svg" xmlns:xlink="http://www.w3.org/1999/xlink" version="1.1" viewBox="-10 0 660 1024">
   <path fill="currentColor"
d="M640 320q-1 -55 -37 -91t-91 -37q-55 1 -91 37t-37 91q0 36 17.5 64.5t46.5 45.5v19q-2 50 -40 88t-88 40q-79 1 -128 29v-304q29 -17 46.5 -45.5t17.5 -64.5q-1 -55 -37 -91t-91 -37q-55 1 -91 37t-37 91q0 36 17.5 64.5t46.5 45.5v420q-29 17 -46.5 45.5t-17.5 64.5
q1 55 37 91t91 37q55 -1 91 -37t37 -91q-1 -52 -34 -87q6 -4 19 -15t19 -15q24 -11 60 -11q100 -4 176 -80q38 -39 58 -90.5t22 -102.5h-1q30 -18 47.5 -46.5t17.5 -64.5zM128 115q32 1 54 23t22 54t-22 54t-54 22t-54 -22t-22 -54t22 -54t54 -23zM128 909q-32 -1 -54 -23
t-22 -54t22 -54t54 -22t54 22t22 54t-22 54t-54 23zM512 397q-32 -1 -54 -23t-22 -54t22 -54t54 -22t54 22t22 54t-22 54t-54 23z" />
</svg>
