<?xml version="1.0" standalone="no"?>
<!DOCTYPE svg PUBLIC "-//W3C//DTD SVG 1.1//EN" "http://www.w3.org/Graphics/SVG/1.1/DTD/svg11.dtd" >
<svg xmlns="http://www.w3.org/2000/svg" xmlns:xlink="http://www.w3.org/1999/xlink" version="1.1" viewBox="-10 0 788 1024">
   <path fill="currentColor"
d="M704 722v-243v-159q-3 -75 -60 -132t-132 -60h-64v-128l-192 192l192 192v-128h64q25 1 44 20t20 44v402q-29 17 -46.5 45.5t-17.5 64.5q1 55 37 91t91 37q55 -1 91 -37t37 -91q0 -36 -17.5 -64.5t-46.5 -45.5zM640 909q-32 -1 -54 -23t-22 -54t22 -54t54 -22t54 22
t22 54t-22 54t-54 23zM256 192q-1 -55 -37 -91t-91 -37q-55 1 -91 37t-37 91q0 36 17.5 64.5t46.5 45.5v420q-29 17 -46.5 45.5t-17.5 64.5q1 55 37 91t91 37q55 -1 91 -37t37 -91q0 -36 -17.5 -64.5t-46.5 -45.5v-420q29 -17 46.5 -45.5t17.5 -64.5zM205 832q-1 32 -23 54
t-54 22t-54 -22t-22 -54t22 -54t54 -22t54 22t23 54zM128 269q-32 -1 -54 -23t-22 -54t22 -54t54 -22t54 22t22 54t-22 54t-54 23z" />
</svg>
