<?xml version="1.0" standalone="no"?>
<!DOCTYPE svg PUBLIC "-//W3C//DTD SVG 1.1//EN" "http://www.w3.org/Graphics/SVG/1.1/DTD/svg11.dtd" >
<svg xmlns="http://www.w3.org/2000/svg" xmlns:xlink="http://www.w3.org/1999/xlink" version="1.1" viewBox="-10 0 916 1024">
   <path fill="currentColor"
d="M448 64q-190 5 -316.5 131.5t-131.5 316.5q5 190 131.5 316.5t316.5 131.5q46 0 88 -9q-8 -6 -9 -28.5t8 -41.5q12 -22 25.5 -59t-12.5 -56q-27 -16 -32 -27.5t-21 -30.5t-15 -26v-11q-2 -18 10 -37t15 -23q1 -4 1 -10.5t-1 -10.5t-9 -9t-13 -6q-3 0 -6 3.5t-8 4
t-18 -7.5t-18 -12.5t-8.5 -11t-9 -11.5t-9.5 -4.5t-12 -2.5l-34 -13l-48 -18q-22 -9 -28 -21t-5 -21q-2 -10 -11 -21.5t-15.5 -22t-9 -19t-4.5 -6.5q-1 6 6.5 27t6.5 25q-2 0 -7 -7.5t-12 -16.5q-4 -7 -2 -14.5t-16.5 -47t-6.5 -65t17 -46.5q3 -18 11 -8t1 0
q-8 -16 -6 -37.5t-3 -33.5q-9 -8 -31 3t-25 13q2 -11 26 -26.5t48 -32.5q22 -15 39 -9.5t35 12t21 5.5t-3 -7.5t1 -8.5t22 0q12 4 22 14t30.5 9t14 3.5t-6.5 10.5q3 5 -3 8t-20 11.5t-3 14.5t37 24q24 16 24.5 -1t-4.5 -34q-1 -13 11 -9.5t14 5.5q14 9 18 6t14 -1
q13 5 35 22l23 19q-36 20 -28.5 27t17.5 11q5 6 -5.5 12t-12.5 7q-8 -7 -11 -3t-8 7.5t-3.5 8.5t2.5 6q-25 6 -27 25t0 28q-1 7 -12.5 16.5t-17.5 20.5q-3 11 4 25.5t0 16.5q-7 -2 -23 -18.5t-61 -7.5q-17 4 -34.5 20.5t-3.5 48.5q18 28 39.5 11.5t31.5 -17.5q8 6 3 19.5
t-4 15.5q4 0 18.5 6t18 33t26 31.5t32.5 3t27 -14t21 -15t20 -6t47 12.5t49 20t27.5 11t10 18.5t8.5 17.5q12 4 40.5 4.5t41.5 15.5q6 22 -25.5 76.5t-52.5 69.5q-16 10 -27 27.5t-27.5 31.5t-37.5 29.5t-43 28.5q-19 12 -26.5 27.5t-15.5 23.5q154 -37 251 -155.5
t100 -282.5q-5 -190 -131.5 -316.5t-316.5 -131.5zM553 484q-4 3 -15 5.5t-34.5 -10.5t-38 -15t-16.5 -2.5t-1 -4t11 -5.5q22 0 43 12t28 14q6 -1 11 -3.5t15 1t6 5.5t-9 3zM406 109q-2 -2 0 -4l6 -5q1 -2 1.5 -4.5t1.5 -4.5q7 -6 21.5 -8.5t11.5 10.5q-7 12 -22 15.5
t-20 0.5zM485 166q-10 -1 -22.5 -3t-10.5 -6q13 -13 2.5 -18.5t-23.5 -6t-17 -5t3 -6t22.5 0t21 4.5t19 10.5t15.5 13.5t0 11t-10 5zM579 163q-9 3 -31 -11.5t-30 -21.5q-27 -21 -43 -22t-21 -4q-11 -8 7 -22q10 -6 29 -1.5t34.5 7t28.5 12t14.5 22.5t9 24t2.5 17z" />
</svg>
