<?xml version="1.0" standalone="no"?>
<!DOCTYPE svg PUBLIC "-//W3C//DTD SVG 1.1//EN" "http://www.w3.org/Graphics/SVG/1.1/DTD/svg11.dtd" >
<svg xmlns="http://www.w3.org/2000/svg" xmlns:xlink="http://www.w3.org/1999/xlink" version="1.1" viewBox="-10 0 916 1024">
   <path fill="currentColor"
d="M896 576l-72 -457q-4 -24 -21.5 -39t-42.5 -16h-624q-25 1 -42.5 16t-21.5 39l-72 457v320q1 27 19 45t45 19h768q27 -1 45 -19t19 -45v-320zM686 611l-28 57q-8 17 -23.5 26.5t-34.5 9.5h-305q-18 0 -33 -9.5t-24 -25.5l-28 -58q-9 -16 -24 -25.5t-33 -9.5h-89l64 -448
h640l64 448h-88q-19 0 -34 9.5t-24 25.5z" />
</svg>
