<?xml version="1.0" standalone="no"?>
<!DOCTYPE svg PUBLIC "-//W3C//DTD SVG 1.1//EN" "http://www.w3.org/Graphics/SVG/1.1/DTD/svg11.dtd" >
<svg xmlns="http://www.w3.org/2000/svg" xmlns:xlink="http://www.w3.org/1999/xlink" version="1.1" viewBox="-10 0 916 1024">
   <path fill="currentColor"
d="M448 147q155 4 258 107t107 258q-4 155 -107 258t-258 107q-155 -4 -258 -107t-107 -258q4 -155 107 -258t258 -107zM448 64q-190 5 -316.5 131.5t-131.5 316.5q5 190 131.5 316.5t316.5 131.5q190 -5 316.5 -131.5t131.5 -316.5q-5 -190 -131.5 -316.5t-316.5 -131.5z
M512 256h-128v320h128v-320zM512 640h-128v128h128v-128z" />
</svg>
