<?xml version="1.0" standalone="no"?>
<!DOCTYPE svg PUBLIC "-//W3C//DTD SVG 1.1//EN" "http://www.w3.org/Graphics/SVG/1.1/DTD/svg11.dtd" >
<svg xmlns="http://www.w3.org/2000/svg" xmlns:xlink="http://www.w3.org/1999/xlink" version="1.1" viewBox="-10 0 1044 1024">
   <path fill="currentColor"
d="M448 640h128v128h-128v-128zM576 256h-128v320h128v-320zM672 352l-64 64l160 160l256 -288l-64 -64l-192 224zM512 877q-155 -4 -258 -107t-107 -258q4 -155 107 -258t258 -107q89 1 163 38.5t125 102.5l59 -59q-62 -77 -151.5 -120.5t-195.5 -44.5q-190 5 -316.5 131.5
t-131.5 316.5q5 190 131.5 316.5t316.5 131.5q190 -5 316.5 -131.5t131.5 -316.5l-97 97q-34 118 -128.5 192t-222.5 76z" />
</svg>
