<?xml version="1.0" standalone="no"?>
<!DOCTYPE svg PUBLIC "-//W3C//DTD SVG 1.1//EN" "http://www.w3.org/Graphics/SVG/1.1/DTD/svg11.dtd" >
<svg xmlns="http://www.w3.org/2000/svg" xmlns:xlink="http://www.w3.org/1999/xlink" version="1.1" viewBox="-10 0 916 1024">
   <path fill="currentColor"
d="M821 139q-72 -72 -181 -75q-108 3 -180 75t-75 181q0 28 6 57l-391 391v64l64 64h128l64 -64v-64h64v-64h64v-64h128l70 -71q28 7 58 7q109 -3 181 -75t75 -181q-3 -109 -75 -181zM704 344q-38 -1 -62.5 -25.5t-24.5 -62.5t24.5 -62.5t62.5 -24.5t62.5 24.5t24.5 62.5
t-24.5 62.5t-62.5 25.5z" />
</svg>
