<?xml version="1.0" standalone="no"?>
<!DOCTYPE svg PUBLIC "-//W3C//DTD SVG 1.1//EN" "http://www.w3.org/Graphics/SVG/1.1/DTD/svg11.dtd" >
<svg xmlns="http://www.w3.org/2000/svg" xmlns:xlink="http://www.w3.org/1999/xlink" version="1.1" viewBox="-10 0 1044 1024">
   <path fill="currentColor"
d="M640 320h-64v-64h64v64zM192 384h-64v64h64v-64zM512 256h-64v64h64v-64zM256 256h-128v64h128v-64zM768 704h128v-64h-128v64zM512 448h64v-64h-64v64zM256 640h-128v64h128v-64zM768 256h-64v64h64v-64zM896 256h-64v64h64v-64zM768 576h128v-192h-128v192zM1024 192
v576q-1 27 -19 45t-45 19h-896q-27 -1 -45 -19t-19 -45v-576q1 -27 19 -45t45 -19h896q27 1 45 19t19 45zM960 192h-896v576h896v-576zM384 448h64v-64h-64v64zM384 256h-64v64h64v-64zM256 448h64v-64h-64v64zM320 704h384v-64h-384v64zM640 448h64v-64h-64v64zM192 512
h-64v64h64v-64zM512 512v64h64v-64h-64zM384 512v64h64v-64h-64zM320 512h-64v64h64v-64zM640 576h64v-64h-64v64z" />
</svg>
