<?xml version="1.0" standalone="no"?>
<!DOCTYPE svg PUBLIC "-//W3C//DTD SVG 1.1//EN" "http://www.w3.org/Graphics/SVG/1.1/DTD/svg11.dtd" >
<svg xmlns="http://www.w3.org/2000/svg" xmlns:xlink="http://www.w3.org/1999/xlink" version="1.1" viewBox="-10 0 778 1024">
   <path fill="currentColor"
d="M352 0q-149 3 -248.5 92.5t-103.5 227.5q1 46 21 100t43 92q63 103 91 152.5t37 103.5v64h320v-64q9 -54 37 -103.5t91 -152.5q23 -38 43 -92t21 -100q-4 -138 -103.5 -227.5t-248.5 -92.5zM585 479q-24 41 -43 71q-41 65 -62.5 109t-30.5 98q-1 5 -1 11h-192
q0 -6 -1 -11q-9 -54 -30.5 -98t-62.5 -109q-19 -30 -43 -71q-21 -36 -37.5 -81t-17.5 -78q3 -109 84.5 -181t203.5 -75q59 0 111.5 19.5t93.5 56t62 83t21 97.5q-1 33 -17.5 78t-37.5 81zM192 896h320q-13 56 -57 91.5t-103 36.5q-59 -1 -103 -36.5t-57 -91.5z" />
</svg>
