<?xml version="1.0" standalone="no"?>
<!DOCTYPE svg PUBLIC "-//W3C//DTD SVG 1.1//EN" "http://www.w3.org/Graphics/SVG/1.1/DTD/svg11.dtd" >
<svg xmlns="http://www.w3.org/2000/svg" xmlns:xlink="http://www.w3.org/1999/xlink" version="1.1" viewBox="-10 0 789 1024">
   <path fill="currentColor"
d="M768 832q1 29 -5 46.5t-33 17.5h-436q-27 0 -33 -17.5t-5 -46.5q-1 -29 5 -46.5t33 -17.5h436q27 0 33 17.5t5 46.5zM294 256h436q27 0 33 -17.5t5 -46.5q1 -29 -5 -46.5t-33 -17.5h-436q-27 0 -33 17.5t-5 46.5q-1 29 5 46.5t33 17.5zM730 448h-436q-27 0 -33 17.5
t-5 46.5q-1 29 5 46.5t33 17.5h436q27 0 33 -17.5t5 -46.5q1 -29 -5 -46.5t-33 -17.5zM128 64h-46q-14 9 -29.5 13.5t-36.5 8.5v42h48v137h-54v55h182v-55h-64v-201zM144 584q-9 0 -20 1l-22 3q27 -27 49.5 -58.5t23.5 -62.5q-1 -38 -24.5 -60.5t-62.5 -22.5q-28 0 -48.5 10
t-39.5 31l37 37q9 -9 18.5 -16.5t23 -7.5t22 8t8.5 25q-1 25 -32 58t-77 74v37h192l-6 -56h-42zM139 826v-2q42 -18 41 -55q0 -34 -24.5 -52.5t-67.5 -18.5q-45 1 -82 33l35 41q12 -10 22 -15t22 -5q26 0 27 23q1 13 -11.5 20.5t-43.5 7.5v48q39 0 51.5 8t11.5 22
q0 12 -10 18t-27 6q-27 -1 -52 -24l-31 43q29 35 90 36q41 0 69 -19t29 -55q0 -24 -13.5 -39t-35.5 -21z" />
</svg>
