<?xml version="1.0" standalone="no"?>
<!DOCTYPE svg PUBLIC "-//W3C//DTD SVG 1.1//EN" "http://www.w3.org/Graphics/SVG/1.1/DTD/svg11.dtd" >
<svg xmlns="http://www.w3.org/2000/svg" xmlns:xlink="http://www.w3.org/1999/xlink" version="1.1" viewBox="-11 0 1611 1024">
   <path fill="currentColor"
d="M301 431h157v257q-28 13 -73 17.5t-89 4.5q-121 -3 -172 -93t-50 -230q-1 -140 50 -230.5t172 -93.5q60 0 106.5 11.5t103.5 35.5v-68q-30 -16 -81 -28.5t-129 -13.5q-165 4 -231.5 112.5t-64.5 273.5q-3 165 63.5 273.5t232.5 112.5q79 0 136 -11.5t94 -29.5v-364h-225
v64zM710 669v-409h-67v402q0 59 27.5 85t82.5 25v-57q-23 0 -33 -9.5t-10 -35.5v-1zM726 111q0 -22 -14 -36t-36 -14t-35.5 14t-13.5 35.5t14 35.5t35.5 14t35.5 -14t14 -35zM1004 475q-70 -6 -93 -24t-21 -51q-2 -38 23 -61.5t97 -24.5q49 0 83 6.5t62 16.5v-60
q-33 -14 -70.5 -19.5t-73.5 -5.5q-104 3 -146.5 47.5t-40.5 100.5q-3 52 33 87.5t142 45.5q72 6 93.5 28.5t19.5 57.5q2 37 -26.5 63.5t-105.5 27.5q-53 0 -90 -7t-59 -16v60q26 10 68.5 17.5t80.5 7.5q112 -2 157.5 -48t43.5 -106q2 -62 -35 -97.5t-141 -45.5h-1zM1553 317
v-55h-155v-160l-69 20v135l-100 28v31h100v320q2 73 48.5 105t111.5 31q10 0 22.5 -1t21.5 -2v-57q-19 2 -39 2q-47 0 -71.5 -20.5t-24.5 -65.5v-312h155v1z" />
</svg>
