<?xml version="1.0" standalone="no"?>
<!DOCTYPE svg PUBLIC "-//W3C//DTD SVG 1.1//EN" "http://www.w3.org/Graphics/SVG/1.1/DTD/svg11.dtd" >
<svg xmlns="http://www.w3.org/2000/svg" xmlns:xlink="http://www.w3.org/1999/xlink" version="1.1" viewBox="-10 0 2890 1024">
   <path fill="currentColor"
d="M553 332h-241q-11 1 -12 11v118q1 10 12 11h94v147q1 0 -17.5 3.5t-62.5 3.5q-56 5 -108.5 -39t-56.5 -198q3 -154 62 -199t133 -40q60 1 91.5 8t47.5 13q5 1 9 -2.5t4 -8.5l27 -114q0 -5 -4 -9q-6 -6 -53.5 -20.5t-151.5 -16.5q-126 -6 -223.5 75t-102.5 322
q7 240 114.5 313t233.5 66q100 -4 155.5 -28.5t56.5 -28.5q2 -1 3 -3.5t1 -4.5v-368q-1 -10 -12 -11h1zM1773 28h-136q-10 1 -11 11v262h-212v-262q-1 -10 -11 -11h-136q-10 1 -11 11v711q0 5 3.5 8t7.5 3h136q10 -1 11 -11v-304h212l-1 304q1 10 11 11h136q10 -1 11 -11
v-711q-1 -10 -11 -11h1zM716 44q-38 1 -62.5 25.5t-24.5 62.5t24.5 62.5t62 24.5t62 -24.5t24.5 -62.5t-24.5 -62.5t-61.5 -25.5zM794 271q-1 -10 -11 -11h-136q-5 0 -8 4t-3 9v470q0 10 5.5 13.5t13.5 3.5h123q10 0 13 -4.5t3 -12.5v-472zM2299 261h-134q-11 1 -11 12v348
q-1 2 -23.5 12.5t-58.5 11.5t-50 -16t-13 -53v-304q-1 -10 -11 -11h-137q-10 1 -11 11v327q2 104 53 141t134 35q68 -3 113.5 -24.5t47.5 -24.5l2 13q1 12 3.5 16.5t9.5 5.5h86q11 -1 11 -11l1 -478q-1 -10 -12 -11zM2668 245q-59 2 -93.5 17t-35.5 17v-241q-1 -10 -11 -11
h-136q-10 1 -11 11l-1 711q0 5 3.5 8t8.5 3h95q6 0 8.5 -5t4.5 -18l2 -15q0 3 41 26.5t120 26.5q94 3 144 -59t51 -223q-5 -159 -66.5 -206t-123.5 -42zM2615 646q-36 -2 -57 -12t-21 -11v-225q1 -1 20.5 -10t48.5 -12q38 -6 66.5 18t29.5 108q1 89 -18.5 118.5t-68.5 25.5z
M1186 643q-5 0 -15 1.5t-22 1.5q-37 -1 -52 -15.5t-15 -37.5v-200h102q10 -1 10 -12v-109q0 -5 -3 -8t-7 -3h-102v-135q0 -8 -9 -8h-138q-9 0 -9 8v139l-74 18q-8 2 -8 11v87q1 11 11 12h71v210q5 113 64 144.5t119 27.5q27 -1 51 -6t30 -8t6 -10v-96q-1 -11 -11 -12h1z" />
</svg>
