<?xml version="1.0" standalone="no"?>
<!DOCTYPE svg PUBLIC "-//W3C//DTD SVG 1.1//EN" "http://www.w3.org/Graphics/SVG/1.1/DTD/svg11.dtd" >
<svg xmlns="http://www.w3.org/2000/svg" xmlns:xlink="http://www.w3.org/1999/xlink" version="1.1" viewBox="-10 0 916 1024">
   <path fill="currentColor"
d="M0 256v512q1 27 19 45t45 19h768q27 -1 45 -19t19 -45v-512q-1 -27 -19 -45t-45 -19h-768q-27 1 -45 19t-19 45zM832 256l-384 320l-384 -320h768zM64 352l256 192l-256 192v-384zM128 768l224 -192l96 96l96 -96l224 192h-640zM832 736l-256 -192l256 -192v384z" />
</svg>
