<?xml version="1.0" standalone="no"?>
<!DOCTYPE svg PUBLIC "-//W3C//DTD SVG 1.1//EN" "http://www.w3.org/Graphics/SVG/1.1/DTD/svg11.dtd" >
<svg xmlns="http://www.w3.org/2000/svg" xmlns:xlink="http://www.w3.org/1999/xlink" version="1.1" viewBox="-10 0 1044 1024">
   <path fill="currentColor"
d="M512 0q-218 5 -362.5 149.5t-149.5 362.5q3 172 99 302t251 184q19 3 27 -5.5t8 -19.5l-1 -95q-94 14 -130 -11t-42 -50q-5 -13 -20 -37t-32 -35q-16 -8 -23.5 -20t22.5 -13q30 1 50.5 20t27.5 32q37 55 81 55.5t68 -12.5q4 -25 12.5 -42t20.5 -27q-90 -6 -160 -57.5
t-74 -195.5q1 -42 14.5 -76t38.5 -61q-6 -10 -10 -46t15 -90q0 -3 34 1.5t107 51.5q62 -17 128 -17t128 17q73 -47 107 -51.5t34 -1.5q19 54 15 90t-10 46q25 27 38.5 61t14.5 76q-4 144 -74.5 195.5t-159.5 57.5q14 12 24 35.5t11 59.5l-1 140q0 11 8 19.5t27 5.5
q155 -54 251 -184t99 -302q-5 -218 -149.5 -362.5t-362.5 -149.5z" />
</svg>
