<?xml version="1.0" standalone="no"?>
<!DOCTYPE svg PUBLIC "-//W3C//DTD SVG 1.1//EN" "http://www.w3.org/Graphics/SVG/1.1/DTD/svg11.dtd" >
<svg xmlns="http://www.w3.org/2000/svg" xmlns:xlink="http://www.w3.org/1999/xlink" version="1.1" viewBox="-10 0 1044 1024">
   <path fill="currentColor"
d="M640 64q-17 0 -33 9q-77 50 -206 134.5t-209 112.5q-70 -1 -129 36t-63 124q4 87 63 124t129 36q29 8 64 26v294h128v-221q66 42 125 83t98 65q16 9 33 9q26 -1 44.5 -18.5t19.5 -45.5v-704q-1 -28 -19.5 -45.5t-44.5 -18.5zM640 832q-37 -23 -96 -64l-32 -22v-534
l85 -56l43 -28v704zM768 448h256v64h-256v-64zM768 576l256 128v64l-256 -128v-64zM1024 192v64l-256 128v-64z" />
</svg>
