<?xml version="1.0" standalone="no"?>
<!DOCTYPE svg PUBLIC "-//W3C//DTD SVG 1.1//EN" "http://www.w3.org/Graphics/SVG/1.1/DTD/svg11.dtd" >
<svg xmlns="http://www.w3.org/2000/svg" xmlns:xlink="http://www.w3.org/1999/xlink" version="1.1" viewBox="-10 0 916 1024">
   <path fill="currentColor"
d="M421 960q60 0 118.5 -15t109.5 -45l-27 -60q-41 25 -90 39t-104 14q-158 -1 -258 -95.5t-103 -270.5q6 -213 130 -335.5t291 -124.5q166 3 250 94.5t84 238.5q-3 116 -52 181t-108 66q-50 0 -66 -35t-1 -105l47 -240h-67l-7 46q-20 -30 -45 -41.5t-55 -11.5
q-106 6 -169 92.5t-65 187.5q1 81 41 124t106 43q41 -1 79 -23t68 -57q6 45 41 69t86 24q85 0 160.5 -80t80.5 -240q-2 -178 -107 -287.5t-288 -112.5q-207 3 -351 146.5t-150 386.5q4 210 122.5 318.5t298.5 108.5zM401 640q-36 0 -61 -26t-26 -81q1 -74 42 -138t112 -68
q24 0 42.5 11.5t37.5 41.5l-33 193q-30 35 -59 51t-55 16z" />
</svg>
