<?xml version="1.0" standalone="no"?>
<!DOCTYPE svg PUBLIC "-//W3C//DTD SVG 1.1//EN" "http://www.w3.org/Graphics/SVG/1.1/DTD/svg11.dtd" >
<svg xmlns="http://www.w3.org/2000/svg" xmlns:xlink="http://www.w3.org/1999/xlink" version="1.1" viewBox="-10 0 1044 1024">
   <path fill="currentColor"
d="M1024 320v192q-1 27 -19 45t-45 19h-192v128l-192 -192l192 -192v128h128v-128h128zM512 512q-3 109 -75 181t-181 75q-109 -3 -181 -75t-75 -181q3 -109 75 -181t181 -75q109 3 181 75t75 181zM96 618l266 -266q-47 -31 -106 -32q-82 2 -136 56t-56 136q1 59 32 106z
M448 512q-1 -59 -32 -106l-266 266q47 31 106 32q82 -2 136 -56t56 -136z" />
</svg>
