<?xml version="1.0" standalone="no"?>
<!DOCTYPE svg PUBLIC "-//W3C//DTD SVG 1.1//EN" "http://www.w3.org/Graphics/SVG/1.1/DTD/svg11.dtd" >
<svg xmlns="http://www.w3.org/2000/svg" xmlns:xlink="http://www.w3.org/1999/xlink" version="1.1" viewBox="-10 0 1044 1024">
   <path fill="currentColor"
d="M941 278q9 -16 15 -72.5t-24 -139.5q1 -5 -52.5 2t-167.5 81q-48 -13 -98.5 -17t-101.5 -4t-101.5 4t-98.5 17q-114 -74 -167.5 -81t-52.5 -2q-30 83 -24 139.5t15 72.5q-39 42 -61 95.5t-22 118.5q4 242 144 326t367 78q227 6 368 -78t145 -326q0 -65 -22 -118.5
t-61 -95.5zM512 833q-163 6 -271 -30.5t-112 -184.5q0 -37 17 -70.5t49 -61.5q52 -43 134.5 -38.5t182.5 8.5q100 -4 182.5 -8.5t134.5 38.5q32 28 49 61.5t17 70.5q-4 148 -112 184.5t-271 30.5zM351 512q-33 2 -54.5 34t-21.5 80.5t21.5 81t54.5 33.5q33 -1 54.5 -33.5
t21.5 -81t-21.5 -80.5t-54.5 -34zM673 512q-33 2 -54.5 34t-21.5 80.5t21.5 81t54.5 33.5q32 -1 54 -33.5t22 -81t-21.5 -80.5t-54.5 -34z" />
</svg>
