<?xml version="1.0" standalone="no"?>
<!DOCTYPE svg PUBLIC "-//W3C//DTD SVG 1.1//EN" "http://www.w3.org/Graphics/SVG/1.1/DTD/svg11.dtd" >
<svg xmlns="http://www.w3.org/2000/svg" xmlns:xlink="http://www.w3.org/1999/xlink" version="1.1" viewBox="-10 0 916 1024">
   <path fill="currentColor"
d="M304 317q27 31 63.5 49t80.5 18t80.5 -18t63.5 -49q17 30 46.5 48.5t65.5 18.5q55 -1 91 -37t37 -91q-1 -55 -37 -91t-91 -37q-39 1 -69 21q-16 -65 -66.5 -106.5t-120.5 -42.5q-70 1 -120.5 42.5t-66.5 106.5q-30 -20 -69 -21q-55 1 -91 37t-37 91q1 55 37 91t91 37
q36 0 65.5 -18.5t46.5 -48.5zM637 220q10 -18 27.5 -29.5t39.5 -11.5q32 1 54 23t22 54t-22 54t-54 22t-53.5 -21t-22.5 -53q6 -18 9 -38zM448 63q55 1 91.5 37.5t37.5 91.5q-1 55 -37.5 91.5t-91.5 37.5q-55 -1 -91.5 -37.5t-37.5 -91.5q1 -55 37.5 -91.5t91.5 -37.5z
M192 333q-32 -1 -54 -23t-22 -54t22 -54t54 -23q22 0 39.5 11.5t27.5 29.5q3 20 9 38q-1 32 -22.5 53t-53.5 22zM832 384h-768q-27 1 -45 19t-19 45v192q1 27 19 45t45 19v128q1 27 19 45t45 19h64q27 -1 45 -19t19 -45v-64h64v192q1 27 19 45t45 19h128q27 -1 45 -19
t19 -45v-192h64v64q1 27 19 45t45 19h64q27 -1 45 -19t19 -45v-128q27 -1 45 -19t19 -45v-192q-1 -27 -19 -45t-45 -19zM192 832h-64v-192h-64v-192h128v384zM640 704h-64v-128h-64v384h-128v-384h-64v128h-64v-256h384v256zM832 640h-64v192h-64v-384h128v192z" />
</svg>
