<?xml version="1.0" standalone="no"?>
<!DOCTYPE svg PUBLIC "-//W3C//DTD SVG 1.1//EN" "http://www.w3.org/Graphics/SVG/1.1/DTD/svg11.dtd" >
<svg xmlns="http://www.w3.org/2000/svg" xmlns:xlink="http://www.w3.org/1999/xlink" version="1.1" viewBox="-10 0 788 1024">
   <path fill="currentColor"
d="M384 0q-163 4 -271.5 112.5t-112.5 271.5v64q1 27 19 45t45 19v320q3 54 93.5 90.5t226.5 37.5q136 -1 226.5 -37.5t93.5 -90.5v-320q27 -1 45 -19t19 -45v-64q-4 -163 -112.5 -271.5t-271.5 -112.5zM576 640v32q0 14 -9 23t-23 9t-23 -9t-9 -23v-32q0 -14 -9 -23t-23 -9
t-23 9t-9 23v160q0 14 -9 23t-23 9t-23 -9t-9 -23v-128q0 -14 -9 -23t-23 -9t-23 9t-9 23v32q-1 27 -19 45t-45 18t-45 -18t-19 -45v-64q-27 -1 -45 -19t-19 -45v-115q44 23 110.5 37t145.5 14t145.5 -14t110.5 -37v115q-1 27 -19 45t-45 19zM384 448q-82 0 -145 -17.5
t-92 -46.5q29 -29 92 -46.5t145 -17.5t145 17.5t92 46.5q-29 29 -92 46.5t-145 17.5zM384 256q-136 1 -226 37.5t-94 90.5v0q3 -136 93.5 -226.5t226.5 -93.5q136 3 226.5 93.5t93.5 226.5q-3 -54 -93.5 -90.5t-226.5 -37.5z" />
</svg>
