<?xml version="1.0" standalone="no"?>
<!DOCTYPE svg PUBLIC "-//W3C//DTD SVG 1.1//EN" "http://www.w3.org/Graphics/SVG/1.1/DTD/svg11.dtd" >
<svg xmlns="http://www.w3.org/2000/svg" xmlns:xlink="http://www.w3.org/1999/xlink" version="1.1" viewBox="-10 0 532 1024">
   <path fill="currentColor"
d="M448 384h-384q-27 1 -45 19t-19 45v320h128v192q1 27 19 45t45 19h128q27 -1 45 -19t19 -45v-192h128v-320q-1 -27 -19 -45t-45 -19zM448 704h-64v-128h-64v384h-128v-384h-64v128h-64v-256h384v256zM448 192q-2 -82 -56 -136t-136 -56q-82 2 -136 56t-56 136
q2 82 56 136t136 56q82 -2 136 -56t56 -136zM256 320q-55 -1 -91 -37t-37 -91q1 -55 37 -91t91 -37q55 1 91 37t37 91q-1 55 -37 91t-91 37z" />
</svg>
