<?xml version="1.0" standalone="no"?>
<!DOCTYPE svg PUBLIC "-//W3C//DTD SVG 1.1//EN" "http://www.w3.org/Graphics/SVG/1.1/DTD/svg11.dtd" >
<svg xmlns="http://www.w3.org/2000/svg" xmlns:xlink="http://www.w3.org/1999/xlink" version="1.1" viewBox="-10 0 906 1024">
   <path fill="currentColor"
d="M394 203q-116 73 -173.5 160.5t-57.5 214.5q15 -4 28 -3q63 0 110.5 39.5t49.5 114.5q-1 78 -44.5 122t-115.5 45q-91 -1 -140.5 -70.5t-50.5 -201.5q0 -182 82 -315.5t239 -223.5zM842 203q-116 73 -173.5 160.5t-57.5 214.5q15 -4 28 -3q63 0 110.5 39.5t49.5 114.5
q-1 78 -44.5 122t-115.5 45q-91 -1 -140.5 -70.5t-50.5 -201.5q0 -182 82 -315.5t239 -223.5z" />
</svg>
