<?xml version="1.0" standalone="no"?>
<!DOCTYPE svg PUBLIC "-//W3C//DTD SVG 1.1//EN" "http://www.w3.org/Graphics/SVG/1.1/DTD/svg11.dtd" >
<svg xmlns="http://www.w3.org/2000/svg" xmlns:xlink="http://www.w3.org/1999/xlink" version="1.1" viewBox="-10 0 1043 1024">
   <path fill="currentColor"
d="M307 391q12 -13 12 -29.5t-12 -29.5q-31 -33 -31 -76t31 -77q12 -12 12 -29t-12.5 -29.5t-28.5 -12.5t-29 12q-27 29 -40.5 64t-13.5 72t13.5 71.5t40.5 63.5q13 12 29 12t29 -12zM149 33q-13 -12 -29.5 -12t-28.5 12q-45 47 -67.5 104.5t-22.5 118t22.5 118t66.5 104.5
q13 12 29.5 12t29 -12.5t12.5 -29.5t-12 -30q-33 -34 -49 -76t-16 -86.5t16 -86.5t49 -76q12 -13 12 -30t-12 -30zM513 360q44 -1 73.5 -30.5t30.5 -73.5q-1 -44 -30.5 -73.5t-73.5 -30.5q-44 1 -73.5 30.5t-30.5 73.5q1 44 30.5 73.5t73.5 30.5zM934 34q-13 -13 -29.5 -13
t-29 13t-12.5 30t12 30q33 34 49 76t16 86.5t-16 86t-49 76.5q-12 13 -12 30t12.5 29.5t29 12.5t29.5 -12q44 -47 66.5 -104.5t22.5 -118.5t-22.5 -118.5t-66.5 -103.5zM513 443v0q-40 0 -77 -20l-201 537h95l55 -64h256l54 64h95l-201 -536q-36 19 -76 19zM513 474l64 230
h-128zM385 832l64 -64h128l64 64h-256zM717 121q-12 13 -12 29.5t12 29.5q16 16 23.5 35.5t7.5 40.5q0 43 -31 76q-12 13 -12 30t12.5 29.5t28.5 12.5t29 -13q27 -28 40.5 -63t13.5 -72t-13.5 -72t-40.5 -63q-13 -12 -29 -12t-29 12z" />
</svg>
