<?xml version="1.0" standalone="no"?>
<!DOCTYPE svg PUBLIC "-//W3C//DTD SVG 1.1//EN" "http://www.w3.org/Graphics/SVG/1.1/DTD/svg11.dtd" >
<svg xmlns="http://www.w3.org/2000/svg" xmlns:xlink="http://www.w3.org/1999/xlink" version="1.1" viewBox="-10 0 788 1024">
   <path fill="currentColor"
d="M640 576h-128v448h-128v-448h-128l144 -192h-144l192 -256l192 256h-144zM704 0h-640q-27 1 -45 19t-19 45v768q1 27 19 45t45 19h256v-64h-256v-128h256v-64h-192v-576h576v576h-128v64h128v128h-128v64h128q27 -1 45 -19t19 -45v-768q-1 -27 -19 -45t-45 -19z" />
</svg>
