<?xml version="1.0" standalone="no"?>
<!DOCTYPE svg PUBLIC "-//W3C//DTD SVG 1.1//EN" "http://www.w3.org/Graphics/SVG/1.1/DTD/svg11.dtd" >
<svg xmlns="http://www.w3.org/2000/svg" xmlns:xlink="http://www.w3.org/1999/xlink" version="1.1" viewBox="-10 0 788 1024">
   <path fill="currentColor"
d="M256 192h-64v-64h64v64zM192 320h64v-64h-64v64zM448 320l-192 256h128v448h128v-448h128zM704 0h-640q-27 1 -45 19t-19 45v768q1 27 19 45t45 19h256v-64h-256v-128h256v-64h-192v-576h577l-1 576h-128v64h128v128h-128v64h128q27 -1 45 -19t19 -45v-768
q-1 -27 -19 -45t-45 -19z" />
</svg>
