<?xml version="1.0" standalone="no"?>
<!DOCTYPE svg PUBLIC "-//W3C//DTD SVG 1.1//EN" "http://www.w3.org/Graphics/SVG/1.1/DTD/svg11.dtd" >
<svg xmlns="http://www.w3.org/2000/svg" xmlns:xlink="http://www.w3.org/1999/xlink" version="1.1" viewBox="-10 0 1034 1024">
   <path fill="currentColor"
d="M192 448h-64v-320h64v320zM128 896h64v-192h-64v192zM448 896h64v-384h-64v384zM768 896h64v-128h-64v128zM832 128h-64v384h64v-384zM512 128h-64v128h64v-128zM256 512h-192q-27 1 -45 19t-18 45t18 45t45 19h192q27 -1 45 -19t18 -45t-18 -45t-45 -19zM576 320h-192
q-27 1 -45 19t-18 45t18 45t45 19h192q27 -1 45 -19t18 -45t-18 -45t-45 -19zM896 576h-192q-27 1 -45 19t-18 45t18 45t45 19h192q27 -1 45 -19t18 -45t-18 -45t-45 -19z" />
</svg>
