<?xml version="1.0" standalone="no"?>
<!DOCTYPE svg PUBLIC "-//W3C//DTD SVG 1.1//EN" "http://www.w3.org/Graphics/SVG/1.1/DTD/svg11.dtd" >
<svg xmlns="http://www.w3.org/2000/svg" xmlns:xlink="http://www.w3.org/1999/xlink" version="1.1" viewBox="-10 0 916 1024">
   <path fill="currentColor"
d="M448 0l-448 128v385q18 228 183.5 367.5t264.5 143.5q99 -4 264.5 -143.5t183.5 -367.5v-385zM320 704l73 -179q2 -11 -2.5 -21.5t-13.5 -16.5q-27 -18 -42 -44.5t-15 -58.5q1 -54 37 -90.5t90 -37.5q53 1 90 37.5t39 90.5q0 32 -15 58.5t-42 44.5q-9 6 -13.5 16.5
t-2.5 21.5l73 179h-256z" />
</svg>
