<?xml version="1.0" standalone="no"?>
<!DOCTYPE svg PUBLIC "-//W3C//DTD SVG 1.1//EN" "http://www.w3.org/Graphics/SVG/1.1/DTD/svg11.dtd" >
<svg xmlns="http://www.w3.org/2000/svg" xmlns:xlink="http://www.w3.org/1999/xlink" version="1.1" viewBox="-10 0 1044 1024">
   <path fill="currentColor"
d="M512 0q-218 5 -362.5 149.5t-149.5 362.5q5 218 149.5 362.5t362.5 149.5q218 -5 362.5 -149.5t149.5 -362.5q-5 -218 -149.5 -362.5t-362.5 -149.5zM820 820q-60 60 -139.5 93.5t-168.5 33.5t-168 -33.5t-139.5 -94t-94 -139.5t-33.5 -168t33.5 -168.5t94 -139.5
t139.5 -93.5t168 -33.5t168.5 33.5t139.5 93.5t93.5 139.5t33.5 168.5t-33.5 168t-93.5 140zM256 371v-38q1 -32 22.5 -53.5t54.5 -22.5h38q32 1 53.5 22.5t22.5 53.5v38q-1 33 -22.5 54.5t-53.5 22.5h-38q-33 -1 -54.5 -22.5t-22.5 -54.5zM576 371v-38q1 -32 22.5 -53.5
t54.5 -22.5h38q32 1 53.5 22.5t22.5 53.5v38q-1 33 -22.5 54.5t-53.5 22.5h-38q-33 -1 -54.5 -22.5t-22.5 -54.5zM832 640q-38 91 -127 141t-193 50t-193 -50t-127 -141q-6 -20 7.5 -41t34.5 -23h550q21 2 37 23t11 41z" />
</svg>
