<?xml version="1.0" standalone="no"?>
<!DOCTYPE svg PUBLIC "-//W3C//DTD SVG 1.1//EN" "http://www.w3.org/Graphics/SVG/1.1/DTD/svg11.dtd" >
<svg xmlns="http://www.w3.org/2000/svg" xmlns:xlink="http://www.w3.org/1999/xlink" version="1.1" viewBox="-10 0 1044 1024">
   <path fill="currentColor"
d="M768 64q-109 2 -181 55t-75 132q3 87 12 167.5t-12 221.5q-9 -214 -98.5 -310.5t-157.5 -95.5q0 -24 -14.5 -33t-16 -9t-8.5 5.5t-11 16.5q-14 -15 -25 -17t-11 -1l-9 37q-7 -2 -58.5 41.5t-60.5 164.5q14 17 62.5 26.5t97.5 1.5q40 5 41 28t-11 36q-40 34 -80.5 10.5
t-87.5 -29.5q-48 4 -48 32t48 32q42 4 72 32t120 32q-130 67 -74.5 157t74.5 99h-64q-46 4 -56 32t-8 32h384q146 1 232 -51.5t88 -170.5q-1 -42 -18.5 -84t-45.5 -78q-47 -74 -13 -115.5t77 -12.5q45 39 115 24.5t77 -152.5q-3 -109 -75 -181t-181 -75zM160 384
q-14 0 -23 -9t-9 -23t9 -23t23 -9t23 9t9 23t-9 23t-23 9z" />
</svg>
