<?xml version="1.0" standalone="no"?>
<!DOCTYPE svg PUBLIC "-//W3C//DTD SVG 1.1//EN" "http://www.w3.org/Graphics/SVG/1.1/DTD/svg11.dtd" >
<svg xmlns="http://www.w3.org/2000/svg" xmlns:xlink="http://www.w3.org/1999/xlink" version="1.1" viewBox="-11 0 790 1024">
   <path fill="currentColor"
d="M655 473q9 63 -10 123t-66 108q-74 70 -169 78.5t-178 -43.5l75 -73l-275 -39l38 269l84 -81q118 84 256.5 75.5t245.5 -109.5q60 -60 87.5 -133.5t24.5 -151.5zM189 320q74 -70 169 -78.5t178 43.5l-75 73l275 39l-38 -269l-84 81q-118 -84 -256.5 -75.5t-245.5 109.5
q-60 60 -87.5 134t-24.5 151l113 23q-9 -63 10 -123t66 -108z" />
</svg>
