<?xml version="1.0" standalone="no"?>
<!DOCTYPE svg PUBLIC "-//W3C//DTD SVG 1.1//EN" "http://www.w3.org/Graphics/SVG/1.1/DTD/svg11.dtd" >
<svg xmlns="http://www.w3.org/2000/svg" xmlns:xlink="http://www.w3.org/1999/xlink" version="1.1" viewBox="-10 0 1045 1024">
   <path fill="currentColor"
d="M986 576h-500q-27 0 -33 -17.5t-5 -46.5q-1 -29 5 -46.5t33 -17.5h500q27 0 33 17.5t5 46.5q1 29 -5 46.5t-33 17.5zM614 256q-27 0 -33 -17.5t-5 -46.5q-1 -29 5 -46.5t33 -17.5h372q27 0 33 17.5t5 46.5q1 29 -5 46.5t-33 17.5h-372zM0 250l90 -83l102 102l262 -269
l90 90l-352 352zM486 768h500q27 0 33 17.5t5 46.5q1 29 -5 46.5t-33 17.5h-500q-27 0 -33 -17.5t-5 -46.5q-1 -29 5 -46.5t33 -17.5z" />
</svg>
