<?xml version="1.0" standalone="no"?>
<!DOCTYPE svg PUBLIC "-//W3C//DTD SVG 1.1//EN" "http://www.w3.org/Graphics/SVG/1.1/DTD/svg11.dtd" >
<svg xmlns="http://www.w3.org/2000/svg" xmlns:xlink="http://www.w3.org/1999/xlink" version="1.1" viewBox="-11 0 790 1024">
   <path fill="currentColor"
d="M730 576h-692q-27 0 -33 -17.5t-5 -46.5q-1 -29 5 -46.5t33 -17.5h692q27 0 33 17.5t5 46.5q1 29 -5 46.5t-33 17.5zM730 320h-692q-27 0 -33 -17.5t-5 -46.5q-1 -29 5 -46.5t33 -17.5h692q27 0 33 17.5t5 46.5q1 29 -5 46.5t-33 17.5zM38 704h692q27 0 33 17.5t5 46.5
q1 29 -5 46.5t-33 17.5h-692q-27 0 -33 -17.5t-5 -46.5q-1 -29 5 -46.5t33 -17.5z" />
</svg>
