<?xml version="1.0" standalone="no"?>
<!DOCTYPE svg PUBLIC "-//W3C//DTD SVG 1.1//EN" "http://www.w3.org/Graphics/SVG/1.1/DTD/svg11.dtd" >
<svg xmlns="http://www.w3.org/2000/svg" xmlns:xlink="http://www.w3.org/1999/xlink" version="1.1" viewBox="-10 0 1044 1024">
   <path fill="currentColor"
d="M896 384h-128h-1l1 -63q-1 -75 -52 -192t-140 -129q-28 0 -54.5 13t-45.5 36q-34 40 -27 90q13 69 7.5 116.5t-47.5 93.5q-46 52 -78.5 75.5t-74.5 23.5h-128q-53 2 -89.5 38.5t-38.5 89.5v256q2 53 38.5 89.5t89.5 38.5h110l92 55q15 9 33 9h405q58 1 119 -27t73 -93
l63 -381q1 -7 1 -13q-2 -57 -37 -91t-91 -35zM896 896q-6 33 -47.5 48.5t-80.5 15.5h-405l-107 -64v-384q64 -1 108.5 -33t91.5 -87q57 -64 64 -127t-8 -137q-2 -25 18.5 -44t45.5 -20q43 8 84 97.5t44 158.5l-1 66q0 33 16 47.5t49 14.5h128q30 0 46.5 16.5t17.5 47.5z" />
</svg>
