<?xml version="1.0" standalone="no"?>
<!DOCTYPE svg PUBLIC "-//W3C//DTD SVG 1.1//EN" "http://www.w3.org/Graphics/SVG/1.1/DTD/svg11.dtd" >
<svg xmlns="http://www.w3.org/2000/svg" xmlns:xlink="http://www.w3.org/1999/xlink" version="1.1" viewBox="-10 0 1044 1024">
   <path fill="currentColor"
d="M287 465q16 16 47 49l34 36l36 -37l-56 -58l108 -115l-22 -21q-18 -18 -5 -8q15 -58 1 -116t-57.5 -103t-99.5 -59.5t-112 0.5l124 128l-32 125l-122 33l-123 -127q-15 57 -1 115t57 103q46 47 105.5 60.5t117.5 -5.5zM699 589l-149 148l246 254q15 16 34 24t38.5 8
t38.5 -8t34 -24q30 -32 30 -74.5t-30 -75.5zM1024 162l-157 -162l-462 477l57 59l-277 285l-63 34l-89 145l23 24l141 -92l32 -66l277 -285l56 58z" />
</svg>
