<?xml version="1.0" standalone="no"?>
<!DOCTYPE svg PUBLIC "-//W3C//DTD SVG 1.1//EN" "http://www.w3.org/Graphics/SVG/1.1/DTD/svg11.dtd" >
<svg xmlns="http://www.w3.org/2000/svg" xmlns:xlink="http://www.w3.org/1999/xlink" version="1.1" viewBox="-10 0 916 1024">
   <path fill="currentColor"
d="M736 544l160 160q-1 27 -19 45t-45 19h-256v-64h224l-128 -128h-448l-128 128h224v64h-256q-27 -1 -45 -19t-19 -45l160 -160l-160 -160q1 -27 19 -45t45 -19h256v64h-224l128 128h448l128 -128h-224v-64h256q27 1 45 19t19 45zM384 448h128v-192h128l-192 -192l-192 192
h128v192zM512 640h-128v192h-128l192 192l192 -192h-128v-192z" />
</svg>
