<?xml version="1.0" standalone="no"?>
<!DOCTYPE svg PUBLIC "-//W3C//DTD SVG 1.1//EN" "http://www.w3.org/Graphics/SVG/1.1/DTD/svg11.dtd" >
<svg xmlns="http://www.w3.org/2000/svg" xmlns:xlink="http://www.w3.org/1999/xlink" version="1.1" viewBox="-10 0 1044 1024">
   <path fill="currentColor"
d="M1003 452l-69 -86q-17 -22 -20 -49l-12 -109q-4 -34 -27.5 -57.5t-57.5 -27.5l-109 -12q-29 -4 -50 -21l-86 -69q-27 -21 -60 -21t-60 21l-86 69q-21 17 -49 20l-109 12q-34 4 -57.5 27.5t-27.5 57.5l-12 109q-4 29 -21 50l-69 86q-21 27 -21 60t21 60l69 86q17 21 20 49
l12 109q4 34 27.5 57.5t57.5 27.5l109 12q29 4 50 21l86 69q27 21 60 21t60 -21l86 -69q22 -17 49 -20l109 -12q34 -4 57.5 -27.5t27.5 -57.5l12 -109q4 -29 21 -50l69 -86q21 -27 21 -60t-21 -60zM576 736q0 14 -9 23t-23 9h-64q-13 0 -22.5 -9t-9.5 -23v-64q0 -14 9.5 -23
t22.5 -9h64q14 0 23 9t9 23v64zM676 423q-6 16 -19 30l-9 11q-4 5 -12 13q-14 15 -33 29q-10 9 -17.5 17t-12 17t-7.5 19q-1 5 -2 8v8h-108v-17q1 -6 2 -14q3 -18 9 -32.5t16 -27t26 -24.5q12 -9 18.5 -16t12.5 -17t9.5 -19t3.5 -19q0 -25 -12.5 -37t-37.5 -12q-9 0 -18.5 3
t-16.5 9t-13 14q-3 4 -4.5 8t-1.5 10h-128q0 -17 5 -29t12 -24q15 -26 39 -43t56 -24.5t70 -7.5q42 0 75 8.5t55.5 24.5t35 40t12.5 56q1 21 -5 38z" />
</svg>
